<svg width="150" height="150" viewBox="0 0 150 150" fill="none" xmlns="http://www.w3.org/2000/svg">
<g clip-path="url(#clip0)">
<path d="M75 150C116.421 150 150 116.421 150 75C150 33.5786 116.421 0 75 0C33.5786 0 0 33.5786 0 75C0 116.421 33.5786 150 75 150Z" fill="#3F3B41"/>
<path d="M26.9531 47.1469V115.016C26.9531 116.112 27.3885 117.163 28.1634 117.938C28.9383 118.713 29.9893 119.148 31.0852 119.148H118.916C120.012 119.148 121.062 118.712 121.837 117.937C122.612 117.163 123.047 116.112 123.047 115.016V47.1469H26.9531Z" fill="#EEEFEE"/>
<path d="M118.915 30.8531H31.0852C29.9895 30.8531 28.9387 31.2883 28.1638 32.063C27.3889 32.8376 26.9534 33.8883 26.9531 34.984V51.1559H123.047V34.984C123.047 33.8883 122.611 32.8376 121.836 32.063C121.061 31.2883 120.011 30.8531 118.915 30.8531Z" fill="#62667C"/>
<path d="M85.5246 44.6332C87.5788 44.6332 89.2441 42.9679 89.2441 40.9137C89.2441 38.8594 87.5788 37.1941 85.5246 37.1941C83.4703 37.1941 81.8051 38.8594 81.8051 40.9137C81.8051 42.9679 83.4703 44.6332 85.5246 44.6332Z" fill="#2CBFAE"/>
<path d="M98.6777 44.6332C100.732 44.6332 102.397 42.9679 102.397 40.9137C102.397 38.8594 100.732 37.1941 98.6777 37.1941C96.6235 37.1941 94.9582 38.8594 94.9582 40.9137C94.9582 42.9679 96.6235 44.6332 98.6777 44.6332Z" fill="#F6C863"/>
<path d="M111.83 44.809C113.884 44.809 115.549 43.1437 115.549 41.0895C115.549 39.0352 113.884 37.3699 111.83 37.3699C109.775 37.3699 108.11 39.0352 108.11 41.0895C108.11 43.1437 109.775 44.809 111.83 44.809Z" fill="#EF5261"/>
<path d="M63.3926 80.3438L53.5488 86.1211L63.3926 91.8984V98.2148L45.9902 88.5234V83.7188L63.3926 74.0273V80.3438Z" fill="#62667C"/>
<path d="M82.3043 72.0223L73.6734 101.864H67.9395L76.5703 72.0223H82.3043Z" fill="#62667C"/>
<path d="M104.01 83.7188V88.5234L86.6074 98.2148V91.8984L96.4512 86.1211L86.6074 80.3438V74.0273L104.01 83.7188Z" fill="#62667C"/>
<g clip-path="url(#clip1)">
<path d="M120.58 89.7304L80.3464 129.964C79.0831 131.228 77.0809 131.274 75.8745 130.068C74.6681 128.861 74.7143 126.859 75.9776 125.596L116.212 85.3617L123.718 78.2126L128.36 82.8001L120.58 89.7304Z" fill="#C9BFC8"/>
<path d="M143.828 87.0085L137.652 77.1165C137.528 76.9179 137.5 76.674 137.576 76.4524L141.26 65.6717C141.469 65.0596 140.883 64.4741 140.271 64.6833L129.49 68.3669C129.269 68.4425 129.025 68.4145 128.826 68.2906L120.488 63.0852L119.67 63.3917L120.572 75.1136L117.602 77.1291L110.601 82.1678L121.208 85.244L123.807 93.3591L125.505 94.6851L125.554 95.3009L130.516 87.6215C130.671 87.3812 130.945 87.2454 131.23 87.2678L143.106 88.1969C143.744 88.2469 144.166 87.5505 143.828 87.0085V87.0085Z" fill="#FEE45A"/>
<path d="M122.796 84.6932C122.72 84.4436 122.525 84.2482 122.275 84.1729L112.908 81.3446L121.217 75.9766C121.457 75.8214 121.593 75.547 121.57 75.2619L120.641 63.3859C120.636 63.3167 120.641 63.2507 120.652 63.1873L118.934 62.1152C118.392 61.7767 117.696 62.1992 117.746 62.8364L118.675 74.7123C118.697 74.9974 118.561 75.2719 118.321 75.4271L108.896 81.516C108.75 81.6102 108.653 81.7385 108.597 81.8792L108.596 81.8793C108.595 81.8809 108.595 81.8827 108.594 81.8845C108.584 81.9114 108.578 81.9395 108.571 81.9674C108.565 81.9905 108.556 82.0129 108.552 82.0365C108.552 82.037 108.552 82.0373 108.552 82.0378H108.552C108.492 82.399 108.686 82.7922 109.094 82.9153L119.397 86.0259C119.646 86.1013 119.842 86.2967 119.917 86.5463L123.028 96.8494C123.219 97.4846 124.067 97.6042 124.427 97.0469L125.857 94.833L122.796 84.6932Z" fill="#FED402"/>
<path d="M101.423 67.5153C99.7427 68.9121 99.2626 70.9416 99.9828 73.604C100.09 74.0017 100.511 74.2286 100.902 74.0977L105.67 72.502C106.166 72.336 106.321 71.7111 105.961 71.3318L102.396 67.5769C102.138 67.3052 101.711 67.276 101.423 67.5153V67.5153Z" fill="#FEE97D"/>
<path d="M130.985 51.8974C129.172 50.6767 127.089 50.7857 124.737 52.2248C124.385 52.4399 124.285 52.9068 124.521 53.2451L127.391 57.3735C127.69 57.803 128.334 57.7769 128.596 57.3246L131.199 52.8479C131.387 52.5242 131.295 52.1067 130.985 51.8974V51.8974Z" fill="#FEE97D"/>
<path d="M114.252 57.9984C113.899 57.9984 113.55 57.845 113.311 57.5491L111.106 54.8221C110.686 54.3024 110.766 53.5406 111.286 53.1204C111.806 52.7003 112.568 52.7809 112.988 53.3006L115.193 56.0276C115.613 56.5473 115.532 57.3091 115.012 57.7293C114.788 57.9103 114.519 57.9984 114.252 57.9984V57.9984Z" fill="#FEE97D"/>
<path d="M138.542 104.634C137.145 106.314 135.115 106.795 132.453 106.074C132.055 105.967 131.829 105.546 131.959 105.156L133.555 100.387C133.721 99.8914 134.346 99.7357 134.725 100.096L138.48 103.662C138.752 103.919 138.781 104.346 138.542 104.634V104.634Z" fill="#FEE97D"/>
<path d="M154.16 75.0724C155.38 76.885 155.271 78.9677 153.832 81.3206C153.617 81.6721 153.15 81.7717 152.812 81.5365L148.683 78.6658C148.254 78.3671 148.28 77.7235 148.732 77.4607L153.209 74.8583C153.533 74.6702 153.95 74.7618 154.16 75.0724Z" fill="#FEE97D"/>
<path d="M151.995 95.2203C151.728 95.2203 151.459 95.1322 151.235 94.9511L148.508 92.7465C147.988 92.3264 147.908 91.5645 148.328 91.0448C148.748 90.5248 149.51 90.4439 150.03 90.8646L152.756 93.0692C153.276 93.4893 153.357 94.2512 152.937 94.7709C152.698 95.0668 152.348 95.2203 151.995 95.2203V95.2203Z" fill="#FEE97D"/>
<path d="M145.97 61.5593C145.647 61.5593 145.324 61.4306 145.086 61.176C144.629 60.6881 144.655 59.9221 145.143 59.4655L148.168 56.6354C148.656 56.1784 149.422 56.2042 149.879 56.6923C150.335 57.1802 150.31 57.9461 149.822 58.4027L146.797 61.2329C146.563 61.4512 146.266 61.5593 145.97 61.5593Z" fill="#FEE97D"/>
</g>
</g>
<defs>
<clipPath id="clip0">
<rect width="150" height="150" fill="white"/>
</clipPath>
<clipPath id="clip1">
<rect width="80" height="80" fill="white" transform="translate(75 51)"/>
</clipPath>
</defs>
</svg>
