<svg width="256" height="256" viewBox="0 0 256 256" fill="none" xmlns="http://www.w3.org/2000/svg">
<path d="M256 128C256 198.693 198.693 256 128 256C57.3066 256 0 198.693 0 128C0 57.3066 57.3066 0 128 0C198.693 0 256 57.3066 256 128Z" fill="url(#paint0_linear)"/>
<path d="M164.459 75.3867H167.898C175.141 75.3867 181.035 81.2812 181.035 88.5234V91.9629C181.035 96.1055 184.393 99.4629 188.535 99.4629C192.676 99.4629 196.035 96.1055 196.035 91.9629V88.5234C196.035 73.0098 183.412 60.3867 167.898 60.3867H164.459C160.316 60.3867 156.959 63.7441 156.959 67.8867C156.959 72.0293 160.316 75.3867 164.459 75.3867Z" fill="white"/>
<path d="M59.9648 91.9629C59.9648 96.1055 63.3223 99.4629 67.4648 99.4629C71.6074 99.4629 74.9648 96.1055 74.9648 91.9629V75.3867H91.1973C95.3398 75.3867 98.6973 72.0293 98.6973 67.8867C98.6973 63.7441 95.3398 60.3867 91.1973 60.3867H74.9648V47.25C74.9648 43.1074 71.6074 39.75 67.4648 39.75C63.3223 39.75 59.9648 43.1074 59.9648 47.25V60.3867H46.8281C42.6855 60.3867 39.3281 63.7441 39.3281 67.8867C39.3281 72.0293 42.6855 75.3867 46.8281 75.3867H59.9648V91.9629Z" fill="white"/>
<path d="M91.541 181.113H88.1016C80.8594 181.113 74.9648 175.219 74.9648 167.977V164.881C74.9648 160.738 71.6074 157.381 67.4648 157.381C63.3242 157.381 59.9648 160.738 59.9648 164.881V167.977C59.9648 183.49 72.5879 196.113 88.1016 196.113H91.541C95.6836 196.113 99.041 192.756 99.041 188.613C99.041 184.471 95.6836 181.113 91.541 181.113Z" fill="white"/>
<path d="M209.172 181.113H196.035V164.881C196.035 160.738 192.678 157.381 188.535 157.381C184.393 157.381 181.035 160.738 181.035 164.881V181.113H164.459C160.316 181.113 156.959 184.471 156.959 188.613C156.959 192.756 160.316 196.113 164.459 196.113H181.035V209.25C181.035 213.393 184.393 216.75 188.535 216.75C192.678 216.75 196.035 213.393 196.035 209.25V196.113H209.172C213.314 196.113 216.672 192.756 216.672 188.613C216.672 184.471 213.314 181.113 209.172 181.113V181.113Z" fill="white"/>
<path d="M136.943 60.3867H119.057C114.914 60.3867 111.557 63.7441 111.557 67.8867C111.557 72.0293 114.914 75.3867 119.057 75.3867H136.943C141.084 75.3867 144.443 72.0293 144.443 67.8867C144.443 63.7441 141.084 60.3867 136.943 60.3867Z" fill="white"/>
<path d="M136.943 181.113H119.057C114.914 181.113 111.557 184.471 111.557 188.613C111.557 192.756 114.914 196.113 119.057 196.113H136.943C141.084 196.113 144.443 192.756 144.443 188.613C144.443 184.471 141.084 181.113 136.943 181.113Z" fill="white"/>
<path d="M188.535 111.979C184.393 111.979 181.035 115.338 181.035 119.479V137.365C181.035 141.506 184.393 144.865 188.535 144.865C192.678 144.865 196.035 141.506 196.035 137.365V119.479C196.035 115.338 192.678 111.979 188.535 111.979V111.979Z" fill="white"/>
<path d="M67.4648 111.979C63.3223 111.979 59.9648 115.338 59.9648 119.479V137.365C59.9648 141.506 63.3223 144.865 67.4648 144.865C71.6074 144.865 74.9648 141.506 74.9648 137.365V119.479C74.9648 115.338 71.6074 111.979 67.4648 111.979V111.979Z" fill="white"/>
<path d="M110.529 115.272L91.9053 128.392L110.529 141.448L105.537 147.208L84.1613 131.784V124.936L105.537 109.512L110.529 115.272ZM133.246 101.32H140.99L124.478 154.184H116.798L133.246 101.32ZM151.466 109.512L172.842 124.936V131.784L151.466 147.208L146.474 141.448L165.034 128.392L146.474 115.272L151.466 109.512Z" fill="white"/>
<defs>
<linearGradient id="paint0_linear" x1="0" y1="128" x2="256" y2="128" gradientUnits="userSpaceOnUse">
<stop stop-color="#00F1FF"/>
<stop offset="0.231" stop-color="#00D8FF"/>
<stop offset="0.5138" stop-color="#00C0FF"/>
<stop offset="0.7773" stop-color="#00B2FF"/>
<stop offset="1" stop-color="#00ADFF"/>
</linearGradient>
</defs>
</svg>
